<?xml version="1.0" encoding="UTF-8"?>
<svg version="1.1" xmlns="http://www.w3.org/2000/svg" width="500" height="500">
<path d="M0 0 C0.92451462 -0.00511093 1.84902924 -0.01022186 2.80155945 -0.01548767 C5.84181282 -0.0293285 8.88183811 -0.02843114 11.92211914 -0.02612305 C14.04529402 -0.03001278 16.16846813 -0.03434803 18.29164124 -0.03910828 C22.73579433 -0.04655849 27.17986796 -0.04628773 31.62402344 -0.04101562 C37.30776631 -0.03522035 42.99118338 -0.05215941 48.6748724 -0.0753603 C53.05788563 -0.0901196 57.44082077 -0.09096637 61.82385445 -0.08785057 C63.91893726 -0.0883626 66.01402457 -0.09357804 68.10908318 -0.10366249 C71.04298733 -0.1160531 73.97626154 -0.10921951 76.91015625 -0.09765625 C77.76806763 -0.10529999 78.625979 -0.11294373 79.5098877 -0.12081909 C86.32849586 -0.06167306 91.89818474 1.12033172 97.30859375 5.56640625 C99.6770182 8.46724896 101.27581581 11.23319449 102.89868164 14.60668945 C103.19142471 15.21237259 103.48416779 15.81805573 103.78578186 16.4420929 C104.71327783 18.37915084 105.62016467 20.32450429 106.51977539 22.2746582 C106.8143866 22.91288513 107.1089978 23.55111206 107.41253662 24.2086792 C109.19741717 28.1065823 110.92032305 32.02774614 112.60205078 35.97119141 C113.1761125 37.30760971 113.75893566 38.64029576 114.35009766 39.96923828 C118.4205439 49.12467303 121.83634573 57.69072145 118.33227539 67.6496582 C113.84090652 74.15439932 109.26983238 77.7246468 101.51977539 79.2746582 C101.18977539 93.4646582 100.85977539 107.6546582 100.51977539 122.2746582 C103.81977539 122.2746582 107.11977539 122.2746582 110.51977539 122.2746582 C111.51977539 123.2746582 111.51977539 123.2746582 111.58227539 126.3371582 C111.56165039 127.3065332 111.54102539 128.2759082 111.51977539 129.2746582 C107.88977539 129.2746582 104.25977539 129.2746582 100.51977539 129.2746582 C100.84977539 133.2346582 101.17977539 137.1946582 101.51977539 141.2746582 C102.6399707 141.30043945 103.76016602 141.3262207 104.91430664 141.3527832 C106.38700185 141.40906455 107.85965659 141.46641189 109.33227539 141.5246582 C110.07026367 141.53883789 110.80825195 141.55301758 111.56860352 141.56762695 C117.01650694 141.81413842 117.01650694 141.81413842 119.54321289 144.1262207 C120.92775504 147.17221344 120.41473498 149.10787813 119.51977539 152.2746582 C116.75358965 155.04084395 115.1398934 154.53336129 111.26319885 154.54881287 C110.61432187 154.55404954 109.9654449 154.55928622 109.29690498 154.56468159 C107.1127514 154.57973788 104.92883091 154.58038795 102.74462891 154.58105469 C101.18271486 154.58867235 99.62080458 154.59709917 98.05889893 154.60627747 C93.80894429 154.62826683 89.55906162 154.63702717 85.30905652 154.64210391 C82.65599473 154.64574193 80.00295195 154.65197903 77.34989738 154.6591053 C68.10044396 154.68361417 58.85104674 154.69665502 49.6015625 154.70019531 C40.96953213 154.70383284 32.33785684 154.73373993 23.70593506 154.7755999 C16.30292426 154.81024629 8.90003145 154.82574276 1.49694008 154.82644135 C-2.9281927 154.82723604 -7.35296396 154.83606201 -11.77801323 154.86443901 C-15.9387683 154.89052366 -20.09885965 154.89287934 -24.25965881 154.87678337 C-25.78873193 154.87496122 -27.31784238 154.88172839 -28.84683418 154.89760208 C-30.93090627 154.91792345 -33.01262528 154.90759853 -35.09666443 154.88938904 C-36.26382209 154.89140037 -37.43097975 154.89341169 -38.63350582 154.89548397 C-41.48022461 154.2746582 -41.48022461 154.2746582 -43.39091587 151.90420628 C-44.67651142 148.80082964 -44.58314281 147.41373309 -43.48022461 144.2746582 C-42.49022461 143.2846582 -42.49022461 143.2846582 -41.48022461 142.2746582 C-35.87022461 142.2746582 -30.26022461 142.2746582 -24.48022461 142.2746582 C-24.48022461 121.1546582 -24.48022461 100.0346582 -24.48022461 78.2746582 C-26.79022461 77.9446582 -29.10022461 77.6146582 -31.48022461 77.2746582 C-36.1221172 75.00179177 -39.49555428 71.45319667 -42.48022461 67.2746582 C-43.28459961 67.6252832 -44.08897461 67.9759082 -44.91772461 68.3371582 C-49.90501359 69.64960267 -54.68198855 69.81339099 -59.32006836 67.26293945 C-62.67794581 64.66037918 -64.27522456 62.27306745 -65.48022461 58.2746582 C-65.69563819 55.43791309 -65.80510733 52.73282376 -65.79272461 49.8996582 C-65.81689453 48.80524414 -65.81689453 48.80524414 -65.84155273 47.6887207 C-65.84712588 41.44680306 -64.52367276 36.76511064 -60.48022461 31.8371582 C-55.89305839 29.44800913 -51.54687506 29.64227927 -46.48022461 30.2746582 C-43.39390914 31.5343788 -42.09249772 32.4291382 -40.16772461 35.0871582 C-39.28949468 37.88152617 -39.3479427 40.36445617 -39.48022461 43.2746582 C-41.79022461 43.2746582 -44.10022461 43.2746582 -46.48022461 43.2746582 C-46.72772461 42.4702832 -46.97522461 41.6659082 -47.23022461 40.8371582 C-48.20249508 38.1517875 -48.20249508 38.1517875 -50.41772461 37.3996582 C-52.67959735 37.13387176 -52.67959735 37.13387176 -55.48022461 38.2746582 C-56.71504645 41.97912373 -56.62580663 45.418959 -56.60522461 49.2746582 C-56.6090918 49.99911133 -56.61295898 50.72356445 -56.61694336 51.4699707 C-56.61104388 54.66748699 -56.49828259 57.22048427 -55.48022461 60.2746582 C-50.99888887 60.9972265 -50.99888887 60.9972265 -46.48022461 61.2746582 C-46.48022461 58.9646582 -46.48022461 56.6546582 -46.48022461 54.2746582 C-48.46022461 54.2746582 -50.44022461 54.2746582 -52.48022461 54.2746582 C-52.48022461 52.2946582 -52.48022461 50.3146582 -52.48022461 48.2746582 C-48.19022461 48.2746582 -43.90022461 48.2746582 -39.48022461 48.2746582 C-39.15022461 46.6246582 -38.82022461 44.9746582 -38.48022461 43.2746582 C-37.98522461 42.1402832 -37.49022461 41.0059082 -36.98022461 39.8371582 C-35.36551467 36.40630956 -35.36551467 36.40630956 -34.98022461 33.0246582 C-34.48022461 30.2746582 -34.48022461 30.2746582 -33.07714844 28.88354492 C-31.1844868 26.97670496 -30.4439536 25.2637336 -29.42944336 22.7824707 C-29.06012695 21.91235352 -28.69081055 21.04223633 -28.31030273 20.14575195 C-27.55307826 18.32582441 -26.80298009 16.50291419 -26.06030273 14.67700195 C-23.6556192 9.05361422 -21.6979694 5.58031018 -16.48022461 2.2746582 C-10.87216482 0.27400682 -5.86889644 -0.0169079 0 0 Z M78.51977539 65.2746582 C77.62554625 66.51097501 76.75489648 67.76437383 75.89477539 69.0246582 C72.05383065 74.2039751 68.48113078 76.5068994 62.14477539 78.1496582 C55.15003835 78.39085603 49.52103211 76.98401959 43.96118164 72.6496582 C41.98570892 70.76519642 40.70729519 68.71955192 39.51977539 66.2746582 C36.27233909 66.99558621 36.27233909 66.99558621 34.83227539 70.0871582 C31.22423356 75.06040505 26.92721447 76.66185553 21.08227539 78.1496582 C13.68097441 78.40935297 9.22417028 77.2679597 3.70727539 72.1496582 C2.99958008 71.42520508 2.29188477 70.70075195 1.56274414 69.9543457 C-0.55438238 67.85126766 -0.55438238 67.85126766 -4.48022461 68.2746582 C-6.21246125 70.21814322 -7.87904064 72.22185824 -9.48022461 74.2746582 C-10.47022461 74.9346582 -11.46022461 75.5946582 -12.48022461 76.2746582 C-12.89701068 78.79361894 -12.89701068 78.79361894 -12.77319336 81.7199707 C-12.76352539 82.79633789 -12.75385742 83.87270508 -12.74389648 84.98168945 C-12.71875977 86.10961914 -12.69362305 87.23754883 -12.66772461 88.3996582 C-12.65418945 89.53532227 -12.6406543 90.67098633 -12.62670898 91.84106445 C-12.5912678 94.65273208 -12.54185978 97.46346237 -12.48022461 100.2746582 C-9.76426475 97.1206403 -8.5117622 95.40080857 -7.48022461 91.2746582 C-4.51022461 91.6046582 -1.54022461 91.9346582 1.51977539 92.2746582 C0.85848633 93.21567383 0.19719727 94.15668945 -0.48413086 95.1262207 C-1.33790008 96.38341934 -2.19071491 97.64126647 -3.04272461 98.8996582 C-3.69917969 99.82584961 -3.69917969 99.82584961 -4.36889648 100.77075195 C-6.55189108 104.03664938 -7.51362166 105.57902199 -7.32006836 109.6105957 C-6.57637503 112.21369088 -6.57637503 112.21369088 -5.48022461 114.2746582 C-3.83447895 114.30153971 -2.18861048 114.32099944 -0.54272461 114.3371582 C0.83206055 114.35456055 0.83206055 114.35456055 2.23461914 114.37231445 C4.48570866 114.53414869 4.48570866 114.53414869 5.51977539 113.2746582 C5.60677881 111.63992938 5.62678602 110.00151765 5.61743164 108.36450195 C5.61259766 106.88046875 5.61259766 106.88046875 5.60766602 105.36645508 C5.59928711 104.32553711 5.5909082 103.28461914 5.58227539 102.2121582 C5.57776367 101.16737305 5.57325195 100.12258789 5.56860352 99.04614258 C5.55677466 96.45562366 5.53883858 93.86513398 5.51977539 91.2746582 C12.44977539 91.6046582 19.37977539 91.9346582 26.51977539 92.2746582 C26.51977539 93.9246582 26.51977539 95.5746582 26.51977539 97.2746582 C20.08477539 97.7696582 20.08477539 97.7696582 13.51977539 98.2746582 C13.51977539 100.9146582 13.51977539 103.5546582 13.51977539 106.2746582 C17.14977539 106.2746582 20.77977539 106.2746582 24.51977539 106.2746582 C24.51977539 108.5846582 24.51977539 110.8946582 24.51977539 113.2746582 C20.88977539 113.2746582 17.25977539 113.2746582 13.51977539 113.2746582 C13.51977539 113.6046582 13.51977539 113.9346582 13.51977539 114.2746582 C21.76977539 114.2746582 30.01977539 114.2746582 38.51977539 114.2746582 C38.51977539 108.9946582 38.51977539 103.7146582 38.51977539 98.2746582 C35.54977539 98.2746582 32.57977539 98.2746582 29.51977539 98.2746582 C29.51977539 95.9646582 29.51977539 93.6546582 29.51977539 91.2746582 C38.09977539 91.2746582 46.67977539 91.2746582 55.51977539 91.2746582 C55.51977539 93.5846582 55.51977539 95.8946582 55.51977539 98.2746582 C52.54977539 98.2746582 49.57977539 98.2746582 46.51977539 98.2746582 C46.51977539 103.5546582 46.51977539 108.8346582 46.51977539 114.2746582 C50.80977539 114.2746582 55.09977539 114.2746582 59.51977539 114.2746582 C59.51977539 106.6846582 59.51977539 99.0946582 59.51977539 91.2746582 C62.20102539 91.3571582 64.88227539 91.4396582 67.64477539 91.5246582 C68.4776709 91.54044922 69.31056641 91.55624023 70.16870117 91.57250977 C75.33636644 91.80678712 78.4118208 92.88828577 82.51977539 96.2746582 C85.40795842 100.66971933 84.43491347 105.33845884 83.51977539 110.2746582 C82.51977539 113.2746582 82.51977539 113.2746582 80.51977539 114.2746582 C83.95207987 114.01072319 83.95207987 114.01072319 87.51977539 113.2746582 C89.92178778 109.67163962 89.89270006 106.92989585 89.96118164 102.75512695 C89.97495346 102.01893631 89.98872528 101.28274567 90.00291443 100.52424622 C90.02617247 98.96676121 90.04344506 97.40917698 90.05517578 95.8515625 C90.08207692 93.47965769 90.15696875 91.11223426 90.23266602 88.74145508 C90.60327426 80.99973956 90.60327426 80.99973956 87.98754883 73.96411133 C86.23319145 72.49048747 84.4907332 71.42497517 82.51977539 70.2746582 C80.64477539 67.3996582 80.64477539 67.3996582 79.51977539 65.2746582 C79.18977539 65.2746582 78.85977539 65.2746582 78.51977539 65.2746582 Z M67.51977539 98.2746582 C67.51977539 101.9046582 67.51977539 105.5346582 67.51977539 109.2746582 C69.43790039 109.3674707 69.43790039 109.3674707 71.39477539 109.4621582 C72.11407227 109.49696289 72.83336914 109.53176758 73.57446289 109.56762695 C74.21641602 109.47094727 74.85836914 109.37426758 75.51977539 109.2746582 C77.89704771 106.37026831 77.89704771 106.37026831 77.26977539 102.6496582 C77.02227539 101.5359082 76.77477539 100.4221582 76.51977539 99.2746582 C73.5631302 97.79633561 70.77747802 98.21433038 67.51977539 98.2746582 Z " fill="#A0928C" transform="translate(211.480224609375,168.725341796875)"/>
<path d="M0 0 C2.64 0 5.28 0 8 0 C8.33 4.95 8.66 9.9 9 15 C11.64 10.05 14.28 5.1 17 0 C20.3 0 23.6 0 27 0 C22.30645161 8.60483871 22.30645161 8.60483871 19.625 12.0625 C17.34828035 16.1781086 18.06126622 18.46278672 19 23 C22.3 22.67 25.6 22.34 29 22 C29.33 14.74 29.66 7.48 30 0 C35.1665625 -0.0309375 35.1665625 -0.0309375 40.4375 -0.0625 C41.52474365 -0.071604 42.6119873 -0.08070801 43.73217773 -0.09008789 C45.00750366 -0.09383423 45.00750366 -0.09383423 46.30859375 -0.09765625 C47.62041626 -0.10551147 47.62041626 -0.10551147 48.95874023 -0.11352539 C51 0 51 0 52 1 C52.125 3.5 52.125 3.5 52 6 C51 7 51 7 48.05859375 7.09765625 C46.26615234 7.08025391 46.26615234 7.08025391 44.4375 7.0625 C42.64119141 7.04896484 42.64119141 7.04896484 40.80859375 7.03515625 C39.88175781 7.02355469 38.95492187 7.01195312 38 7 C38 9.64 38 12.28 38 15 C41.63 15 45.26 15 49 15 C49 17.31 49 19.62 49 22 C55.93 22.495 55.93 22.495 63 23 C63 17.72 63 12.44 63 7 C60.03 7 57.06 7 54 7 C54 4.69 54 2.38 54 0 C62.58 0 71.16 0 80 0 C80 2.31 80 4.62 80 7 C77.03 7 74.06 7 71 7 C71 12.28 71 17.56 71 23 C75.29 23 79.58 23 84 23 C84 15.41 84 7.82 84 0 C86.68125 -0.0825 89.3625 -0.165 92.125 -0.25 C92.95789551 -0.28641602 93.79079102 -0.32283203 94.64892578 -0.36035156 C99.90777441 -0.43814889 102.83978264 0.51098971 107 4 C110.20097098 8.44005652 110.19360674 11.74535599 109.51953125 16.94921875 C109 19 109 19 107 22 C110.93075644 21.42547254 110.93075644 21.42547254 114 19 C114 25.27 114 31.54 114 38 C117.63 38 121.26 38 125 38 C125.33 41.96 125.66 45.92 126 50 C127.12019531 50.02578125 128.24039063 50.0515625 129.39453125 50.078125 C130.86722646 50.13440635 132.3398812 50.19175368 133.8125 50.25 C134.55048828 50.26417969 135.28847656 50.27835937 136.04882812 50.29296875 C141.49673155 50.53948022 141.49673155 50.53948022 144.0234375 52.8515625 C145.40797965 55.89755523 144.89495958 57.83321993 144 61 C141.23381426 63.76618574 139.62011801 63.25870309 135.74342346 63.27415466 C135.09454648 63.27939134 134.44566951 63.28462802 133.77712959 63.29002339 C131.59297601 63.30507967 129.40905552 63.30572975 127.22485352 63.30639648 C125.66293947 63.31401415 124.10102919 63.32244097 122.53912354 63.33161926 C118.2891689 63.35360863 114.03928623 63.36236897 109.78928113 63.36744571 C107.13621934 63.37108372 104.48317656 63.37732082 101.83012199 63.3844471 C92.58066856 63.40895597 83.33127135 63.42199682 74.08178711 63.42553711 C65.44975674 63.42917464 56.81808145 63.45908173 48.18615967 63.50094169 C40.78314887 63.53558808 33.38025606 63.55108456 25.97716469 63.55178314 C21.55203191 63.55257783 17.12726065 63.56140381 12.70221138 63.58978081 C8.54145631 63.61586546 4.38136496 63.61822114 0.2205658 63.60212517 C-1.30850732 63.60030302 -2.83761777 63.60707018 -4.36660957 63.62294388 C-6.45068166 63.64326525 -8.53240067 63.63294033 -10.61643982 63.61473083 C-11.78359748 63.61674216 -12.95075514 63.61875349 -14.15328121 63.62082577 C-17 63 -17 63 -18.91069126 60.62954807 C-20.19628681 57.52617144 -20.1029182 56.13907488 -19 53 C-18.34 52.34 -17.68 51.68 -17 51 C-11.39 51 -5.78 51 0 51 C0 34.17 0 17.34 0 0 Z M92 7 C92 10.63 92 14.26 92 18 C93.918125 18.0928125 93.918125 18.0928125 95.875 18.1875 C96.59429687 18.22230469 97.31359375 18.25710938 98.0546875 18.29296875 C98.69664062 18.19628906 99.33859375 18.09960938 100 18 C102.37727232 15.09561011 102.37727232 15.09561011 101.75 11.375 C101.5025 10.26125 101.255 9.1475 101 8 C98.04335481 6.5216774 95.25770263 6.93967217 92 7 Z " fill="#A0928C" transform="translate(187,260)"/>
<path d="M0 0 C1.1232518 -0.00855011 1.1232518 -0.00855011 2.26919556 -0.01727295 C3.85083631 -0.02667245 5.43249621 -0.0332367 7.01416016 -0.03710938 C9.37309514 -0.0467083 11.73111653 -0.07773414 14.08984375 -0.109375 C41.89073859 -0.30334912 69.31780444 7.99828238 92.0390625 24.203125 C93.00199219 24.87085938 93.96492187 25.53859375 94.95703125 26.2265625 C126.95783357 49.52155649 148.13892466 83.51948572 154.59423828 122.56079102 C155.02529838 126.0904209 155.15309448 129.45818602 155.13671875 133.01171875 C155.13349609 134.25244141 155.13027344 135.49316406 155.12695312 136.77148438 C155.11857422 138.04830078 155.11019531 139.32511719 155.1015625 140.640625 C155.09705078 141.94451172 155.09253906 143.24839844 155.08789062 144.59179688 C155.07615501 147.79562052 155.05973613 150.99934863 155.0390625 154.203125 C152.3990625 154.203125 149.7590625 154.203125 147.0390625 154.203125 C147.01718872 153.24611694 147.01718872 153.24611694 146.99487305 152.26977539 C146.08261919 116.36952365 137.39693455 84.26218524 114.0390625 56.203125 C112.92724609 54.86121094 112.92724609 54.86121094 111.79296875 53.4921875 C89.85964665 28.07924745 57.1417302 12.73770143 24.0390625 9.203125 C8.81027444 8.55082952 -6.11082421 8.59933182 -20.9609375 12.203125 C-22.21390625 12.4815625 -23.466875 12.76 -24.7578125 13.046875 C-59.2214754 21.34103454 -88.53633223 44.2553344 -106.9609375 74.203125 C-110.50091707 80.4268648 -113.76523526 86.79702763 -116.9609375 93.203125 C-119.6009375 93.203125 -122.2409375 93.203125 -124.9609375 93.203125 C-125.2909375 92.543125 -125.6209375 91.883125 -125.9609375 91.203125 C-119.27801838 73.38200735 -108.28028496 57.65397519 -94.9609375 44.203125 C-94.0046213 43.1892786 -93.05022769 42.17361564 -92.09765625 41.15625 C-68.95156976 16.77102179 -33.80265424 0.20581339 0 0 Z " fill="#E7DFDF" transform="translate(239.9609375,104.796875)"/>
<path d="M0 0 C2.64 0 5.28 0 8 0 C8.27038086 0.52207031 8.54076172 1.04414063 8.81933594 1.58203125 C15.25332148 13.89990465 22.18588481 25.24384455 31 36 C31.78246094 36.95519531 32.56492188 37.91039062 33.37109375 38.89453125 C55.10914389 64.11996912 87.37495036 78.8888014 120 83 C158.63215835 84.89852751 193.88156656 76.07220515 224 51 C224.89460937 50.25878906 225.78921875 49.51757812 226.7109375 48.75390625 C242.20516751 35.38119389 252.42707103 17.806847 262 0 C264.97 0 267.94 0 271 0 C256.14963437 37.65159074 227.93895499 65.27647693 191.4375 82.1875 C177.37139531 88.00907859 161.57502281 92.09472962 146.33203125 92.23828125 C145.08059578 92.25038887 145.08059578 92.25038887 143.80387878 92.26274109 C142.03634686 92.27653362 140.26878884 92.28727724 138.5012207 92.29516602 C136.73193289 92.30657248 134.96267628 92.32683934 133.19360352 92.35668945 C93.80733171 93.01923458 59.42858043 76.66497897 31 50 C18.3074181 37.47919741 5.70878802 20.01369062 0 3 C0 2.01 0 1.02 0 0 Z " fill="#E6DFDE" transform="translate(115,303)"/>
<path d="M0 0 C2.14550269 0.01611324 4.28912304 0.00001681 6.43457031 -0.01904297 C19.31245583 -0.03941922 31.86486316 1.80986676 44.08300781 6.01611328 C44.82405762 6.26989746 45.56510742 6.52368164 46.32861328 6.78515625 C61.25535077 12.12539341 73.88016595 20.47832808 86.14550781 30.39111328 C86.98082031 31.06400391 87.81613281 31.73689453 88.67675781 32.43017578 C93.322571 36.34337997 97.32390681 40.676994 101.14550781 45.39111328 C101.84546875 46.25349609 102.54542969 47.11587891 103.26660156 48.00439453 C120.66632051 70.2893032 130.40877671 96.52019829 130.20800781 124.82861328 C130.20349609 126.03710938 130.19898438 127.24560547 130.19433594 128.49072266 C130.18260926 131.45757117 130.16619678 134.42431598 130.14550781 137.39111328 C128.49550781 137.39111328 126.84550781 137.39111328 125.14550781 137.39111328 C125.12363403 136.52498413 125.12363403 136.52498413 125.10131836 135.64135742 C124.20458498 103.64730461 117.17843445 74.48171957 96.14550781 49.39111328 C95.4275 48.52228516 94.70949219 47.65345703 93.96972656 46.75830078 C74.53634402 24.18382089 45.52029217 10.00818253 16.14550781 6.39111328 C-18.11526442 4.06721872 -50.16843231 12.25556651 -76.85449219 34.39111328 C-77.72589844 35.11041016 -78.59730469 35.82970703 -79.49511719 36.57080078 C-90.71649165 46.24321251 -99.13103838 58.21111601 -106.35449219 71.05908203 C-107.60449219 73.26611328 -107.60449219 73.26611328 -109.85449219 76.39111328 C-112.66699219 76.89111328 -112.66699219 76.89111328 -114.85449219 76.39111328 C-112.41102428 58.45003388 -92.18404164 38.12539674 -78.85449219 27.60986328 C-55.42666775 10.28303479 -29.40475838 -0.26122678 0 0 Z " fill="#E3DBDA" transform="translate(247.8544921875,121.60888671875)"/>
<path d="M0 0 C2.6953125 -0.4921875 2.6953125 -0.4921875 6 0 C8.1259227 2.33612629 9.44057461 5.07743227 10.875 7.875 C11.73889766 9.44856275 12.60869674 11.01890002 13.484375 12.5859375 C13.90912109 13.34874023 14.33386719 14.11154297 14.77148438 14.89746094 C17.3615564 19.33023126 20.63026431 23.14985393 24 27 C24.62261719 27.75410156 25.24523437 28.50820313 25.88671875 29.28515625 C42.12420105 48.48688481 66.48457702 61.92125973 91 67 C91.86882812 67.20238281 92.73765625 67.40476562 93.6328125 67.61328125 C125.25483866 73.81119838 158.86177767 66.61415883 185.5 48.8125 C204.06511487 35.47731383 216.80287407 19.82771962 228 0 C229.98 0 231.96 0 234 0 C227.13731086 23.10553631 205.70377397 43.32004193 186 56 C185.02804687 56.63292969 184.05609375 57.26585937 183.0546875 57.91796875 C156.07970795 74.56601471 120.25963448 80.22081631 89.25 73.3125 C86.46842836 72.63021046 83.73427 71.85083268 81 71 C79.17662109 70.45666016 79.17662109 70.45666016 77.31640625 69.90234375 C58.25398291 63.63320787 41.81728042 53.34098314 27.46923828 39.41796875 C26.16206114 38.15640597 24.83066228 36.92005003 23.49609375 35.6875 C15.14232381 27.78410722 9.15225074 18.20464763 3.4375 8.3125 C3.09066162 7.71219971 2.74382324 7.11189941 2.38647461 6.4934082 C0 2.25425154 0 2.25425154 0 0 Z " fill="#E3DBDA" transform="translate(133,303)"/>
<path d="M0 0 C3.3 0 6.6 0 10 0 C13.24374925 7.78499819 15.02202056 15.81525749 17 24 C19.31 16.08 21.62 8.16 24 0 C27.3 0 30.6 0 34 0 C35 1 35 1 35.11352539 4.51000977 C35.11336626 6.07048422 35.10767142 7.63096393 35.09765625 9.19140625 C35.0962413 10.01124496 35.09482635 10.83108368 35.09336853 11.67576599 C35.08775289 14.30471382 35.07519779 16.93357773 35.0625 19.5625 C35.05748701 21.34049357 35.05292376 23.11848846 35.04882812 24.89648438 C35.03777839 29.26435545 35.02050331 33.63216348 35 38 C32.03 38 29.06 38 26 38 C26 31.73 26 25.46 26 19 C24.39585895 24.87778502 24.39585895 24.87778502 22.79907227 30.75756836 C22.59854248 31.48596924 22.3980127 32.21437012 22.19140625 32.96484375 C21.88505249 34.08814087 21.88505249 34.08814087 21.57250977 35.23413086 C21 37 21 37 20 38 C18.02 38 16.04 38 14 38 C12.35 32.39 10.7 26.78 9 21 C8.67 26.61 8.34 32.22 8 38 C5.36 38 2.72 38 0 38 C0 25.46 0 12.92 0 0 Z " fill="#E3DCDB" transform="translate(86,260)"/>
<path d="M0 0 C3.3 0 6.6 0 10 0 C11.00648976 3.41487596 12.00541041 6.83165832 13 10.25 C13.28617188 11.21808594 13.57234375 12.18617188 13.8671875 13.18359375 C14.13789063 14.11816406 14.40859375 15.05273438 14.6875 16.015625 C15.06455078 17.30388184 15.06455078 17.30388184 15.44921875 18.61816406 C16 21 16 21 16 25 C16.66 25 17.32 25 18 25 C18.11069824 24.45585449 18.22139648 23.91170898 18.33544922 23.35107422 C18.84482619 20.85825433 19.35986694 18.3666365 19.875 15.875 C20.13603516 14.59109375 20.13603516 14.59109375 20.40234375 13.28125 C21.34611684 8.73715732 22.4086859 4.37252973 24 0 C27.3 0 30.6 0 34 0 C34 12.54 34 25.08 34 38 C31.69 38 29.38 38 27 38 C26.67 31.07 26.34 24.14 26 17 C24.02 23.93 22.04 30.86 20 38 C18.02 38 16.04 38 14 38 C12.02 31.07 10.04 24.14 8 17 C7.67 23.93 7.34 30.86 7 38 C4.69 38 2.38 38 0 38 C0 25.46 0 12.92 0 0 Z " fill="#EBE3E3" transform="translate(208,199)"/>
<path d="M0 0 C16 0 16 0 21 3 C24.51569372 6.70032534 24.48310725 9.7027448 24.3828125 14.6171875 C24 17 24 17 21.8125 19.5625 C21.214375 20.366875 20.61625 21.17125 20 22 C20.61375028 25.98576655 22.2261852 29.55247931 24.1171875 33.08984375 C25 35 25 35 25 38 C22.36 38 19.72 38 17 38 C13.21617803 30.59766867 13.21617803 30.59766867 11.9375 27.0625 C11.4734375 26.0415625 11.4734375 26.0415625 11 25 C10.01 24.67 9.02 24.34 8 24 C8 28.62 8 33.24 8 38 C5.36 38 2.72 38 0 38 C0 25.46 0 12.92 0 0 Z M8 7 C8 10.63 8 14.26 8 18 C12.34184202 17.81535634 12.34184202 17.81535634 16 16 C16.25003964 12.54178598 16.25003964 12.54178598 16 9 C14.10244856 6.65026182 14.10244856 6.65026182 10.875 6.875 C9.92625 6.91625 8.9775 6.9575 8 7 Z " fill="#E7E0DF" transform="translate(158,260)"/>
<path d="M0 0 C3.08631546 1.2597206 4.38772689 2.15447999 6.3125 4.8125 C7.19072993 7.60686797 7.13228191 10.08979796 7 13 C4.69 13 2.38 13 0 13 C-0.2475 12.195625 -0.495 11.39125 -0.75 10.5625 C-1.72227047 7.8771293 -1.72227047 7.8771293 -3.9375 7.125 C-6.19937274 6.85921355 -6.19937274 6.85921355 -9 8 C-10.23482184 11.70446553 -10.14558202 15.1443008 -10.125 19 C-10.12886719 19.72445312 -10.13273438 20.44890625 -10.13671875 21.1953125 C-10.13081927 24.39282879 -10.01805798 26.94582607 -9 30 C-4.51866426 30.72256829 -4.51866426 30.72256829 0 31 C0 28.69 0 26.38 0 24 C-1.98 24 -3.96 24 -6 24 C-6 22.02 -6 20.04 -6 18 C-1.38 18 3.24 18 8 18 C8.16236745 20.58585205 8.28095486 23.16151954 8.375 25.75 C8.45041016 26.84441406 8.45041016 26.84441406 8.52734375 27.9609375 C8.5859375 30.109375 8.5859375 30.109375 8 34 C3.17832238 38.37007957 -1.66602845 39.25789786 -8 39 C-12.76149212 37.41283596 -15.20991508 35.13345914 -18 31 C-19.25658192 27.23025424 -19.22313998 23.67827808 -19.25 19.75 C-19.270625 19.01136719 -19.29125 18.27273437 -19.3125 17.51171875 C-19.35700263 11.20347082 -18.09176651 6.54934044 -14 1.5625 C-9.41283378 -0.82664907 -5.06665045 -0.63237893 0 0 Z " fill="#E5DDDC" transform="translate(165,199)"/>
<path d="M0 0 C2.64 0 5.28 0 8 0 C8.33 4.95 8.66 9.9 9 15 C11.64 10.05 14.28 5.1 17 0 C20.3 0 23.6 0 27 0 C22.33928571 8.54464286 22.33928571 8.54464286 19.625 12.1875 C17.5173975 15.83527357 17.97347552 16.94546269 19 21 C20.22140072 24.02541954 21.6256979 26.94680227 23.0625 29.875 C23.43955078 30.65875 23.81660156 31.4425 24.20507812 32.25 C25.12993234 34.16995053 26.06403978 36.085439 27 38 C24.03 38 21.06 38 18 38 C16.99515796 36.04414675 15.99626195 34.08523763 15 32.125 C14.443125 31.03445313 13.88625 29.94390625 13.3125 28.8203125 C12 26 12 26 12 24 C11.34 24 10.68 24 10 24 C8.99740493 27.00778521 8.69685358 29.53820647 8.4375 32.6875 C8.35371094 33.68136719 8.26992187 34.67523438 8.18359375 35.69921875 C8.12300781 36.45847656 8.06242188 37.21773438 8 38 C5.36 38 2.72 38 0 38 C0 25.46 0 12.92 0 0 Z " fill="#E7DFDF" transform="translate(187,260)"/>
<path d="M0 0 C2.31 0 4.62 0 7 0 C9.89688479 6.26252115 11.97271415 12.75946966 14.0715332 19.32617188 C14.6910281 21.26101919 15.31884003 23.19303737 15.94726562 25.125 C16.33978516 26.34703125 16.73230469 27.5690625 17.13671875 28.828125 C17.67365356 30.4972998 17.67365356 30.4972998 18.22143555 32.20019531 C19 35 19 35 19 38 C16.36 38 13.72 38 11 38 C10.01 34.535 10.01 34.535 9 31 C4.05 31.495 4.05 31.495 -1 32 C-1.66 33.98 -2.32 35.96 -3 38 C-5.97 38 -8.94 38 -12 38 C-10.45400867 32.90897573 -8.90570109 27.81866401 -7.35522461 22.72900391 C-6.82789096 20.99677702 -6.30119538 19.26435576 -5.77514648 17.53173828 C-5.019737 15.04408442 -4.26204986 12.55713426 -3.50390625 10.0703125 C-3.26845596 9.29317902 -3.03300568 8.51604553 -2.79042053 7.71536255 C-1.11387171 2.22774341 -1.11387171 2.22774341 0 0 Z M3 13 C1.80712589 16.87684087 1 19.91621923 1 24 C2.98 24 4.96 24 7 24 C6.71890887 22.35232753 6.42481474 20.70686855 6.125 19.0625 C5.88136719 17.68771484 5.88136719 17.68771484 5.6328125 16.28515625 C5.42398437 15.53105469 5.21515625 14.77695312 5 14 C4.34 13.67 3.68 13.34 3 13 Z " fill="#E5DEDD" transform="translate(336,260)"/>
<path d="M0 0 C1.134375 0.020625 2.26875 0.04125 3.4375 0.0625 C4.8289957 4.18715391 6.21636353 8.31316735 7.60009766 12.44042969 C8.07034868 13.84119113 8.54168095 15.24159011 9.01416016 16.64160156 C13.84512084 30.960855 13.84512084 30.960855 15.4375 38.0625 C12.4675 38.0625 9.4975 38.0625 6.4375 38.0625 C6.1075 35.7525 5.7775 33.4425 5.4375 31.0625 C1.8075 31.0625 -1.8225 31.0625 -5.5625 31.0625 C-5.706875 32.031875 -5.85125 33.00125 -6 34 C-6.5625 37.0625 -6.5625 37.0625 -7.5625 38.0625 C-10.23308851 38.20365161 -12.88682238 38.10497107 -15.5625 38.0625 C-13.54650255 29.53927871 -11.13394283 21.20631693 -8.4375 12.875 C-8.07785156 11.74513672 -7.71820313 10.61527344 -7.34765625 9.45117188 C-4.3336125 0.07602829 -4.3336125 0.07602829 0 0 Z M-0.5625 12.0625 C-1.5525 16.0225 -2.5425 19.9825 -3.5625 24.0625 C-1.5825 24.0625 0.3975 24.0625 2.4375 24.0625 C2.31375 22.825 2.19 21.5875 2.0625 20.3125 C1.95808594 19.26835937 1.95808594 19.26835937 1.8515625 18.203125 C1.4584593 15.65572889 1.4584593 15.65572889 -0.5625 12.0625 Z " fill="#E5DEDD" transform="translate(139.5625,259.9375)"/>
<path d="M0 0 C2.31 0 4.62 0 7 0 C9.89688479 6.26252115 11.97271415 12.75946966 14.0715332 19.32617188 C14.6910281 21.26101919 15.31884003 23.19303737 15.94726562 25.125 C16.33978516 26.34703125 16.73230469 27.5690625 17.13671875 28.828125 C17.67365356 30.4972998 17.67365356 30.4972998 18.22143555 32.20019531 C19 35 19 35 19 38 C16.36 38 13.72 38 11 38 C10.01 34.535 10.01 34.535 9 31 C4.05 31.495 4.05 31.495 -1 32 C-1.66 33.98 -2.32 35.96 -3 38 C-5.97 38 -8.94 38 -12 38 C-10.45400867 32.90897573 -8.90570109 27.81866401 -7.35522461 22.72900391 C-6.82789096 20.99677702 -6.30119538 19.26435576 -5.77514648 17.53173828 C-5.019737 15.04408442 -4.26204986 12.55713426 -3.50390625 10.0703125 C-3.26845596 9.29317902 -3.03300568 8.51604553 -2.79042053 7.71536255 C-1.11387171 2.22774341 -1.11387171 2.22774341 0 0 Z M3 13 C1.80712589 16.87684087 1 19.91621923 1 24 C2.98 24 4.96 24 7 24 C6.71890887 22.35232753 6.42481474 20.70686855 6.125 19.0625 C5.88136719 17.68771484 5.88136719 17.68771484 5.6328125 16.28515625 C5.42398438 15.53105469 5.21515625 14.77695313 5 14 C4.34 13.67 3.68 13.34 3 13 Z " fill="#E5DEDD" transform="translate(124,199)"/>
<path d="M0 0 C2.64 0 5.28 0 8 0 C8.02505615 0.86802246 8.0501123 1.73604492 8.07592773 2.63037109 C8.17099484 5.84713163 8.27023203 9.06372849 8.37231445 12.28027344 C8.41565846 13.6731259 8.45733396 15.06603131 8.49731445 16.45898438 C8.55502932 18.45976651 8.61921869 20.46035859 8.68359375 22.4609375 C8.72025146 23.66540527 8.75690918 24.86987305 8.79467773 26.11083984 C8.81052987 28.93996367 8.81052987 28.93996367 10 31 C11.98 31 13.96 31 16 31 C17.39560045 28.20879909 17.21808288 25.79794308 17.31640625 22.6796875 C17.35830078 21.42285156 17.40019531 20.16601562 17.44335938 18.87109375 C17.48267578 17.55238281 17.52199219 16.23367187 17.5625 14.875 C17.60569512 13.53514249 17.64930973 12.19529844 17.69335938 10.85546875 C17.79970981 7.57042185 17.90173808 4.28529719 18 1 C20.31 1 22.62 1 25 1 C25.0992011 5.32326033 25.17162265 9.64591024 25.21972656 13.9699707 C25.23978825 15.43948921 25.26704478 16.90892841 25.30175781 18.37817383 C25.35052141 20.49580487 25.37302161 22.61237687 25.390625 24.73046875 C25.41157227 26.00301514 25.43251953 27.27556152 25.45410156 28.58666992 C24.92319536 32.57731488 23.81071513 34.17915793 21 37 C16.82437724 39.08781138 11.54816058 38.44327867 7 38 C3.28896489 35.92182034 1.52692273 33.91352044 0 30 C-0.22705078 26.79199219 -0.22705078 26.79199219 -0.1953125 23.046875 C-0.1924826 22.38665344 -0.18965271 21.72643188 -0.18673706 21.04620361 C-0.17558415 18.94728103 -0.15048946 16.84879258 -0.125 14.75 C-0.11496384 13.32292285 -0.1058391 11.89583898 -0.09765625 10.46875 C-0.07566111 6.97902672 -0.04116536 3.48955577 0 0 Z " fill="#E9E2E2" transform="translate(177,199)"/>
<path d="M0 0 C5.1665625 -0.0309375 5.1665625 -0.0309375 10.4375 -0.0625 C11.52474365 -0.071604 12.6119873 -0.08070801 13.73217773 -0.09008789 C15.00750366 -0.09383423 15.00750366 -0.09383423 16.30859375 -0.09765625 C17.62041626 -0.10551147 17.62041626 -0.10551147 18.95874023 -0.11352539 C21 0 21 0 22 1 C22.125 3.5 22.125 3.5 22 6 C21 7 21 7 18.05859375 7.09765625 C16.26615234 7.08025391 16.26615234 7.08025391 14.4375 7.0625 C12.64119141 7.04896484 12.64119141 7.04896484 10.80859375 7.03515625 C9.88175781 7.02355469 8.95492188 7.01195312 8 7 C8 9.64 8 12.28 8 15 C11.63 15 15.26 15 19 15 C19 17.31 19 19.62 19 22 C15.37 22 11.74 22 8 22 C8 24.97 8 27.94 8 31 C9.39025391 30.98259766 9.39025391 30.98259766 10.80859375 30.96484375 C12.00613281 30.95582031 13.20367187 30.94679688 14.4375 30.9375 C15.63246094 30.92589844 16.82742188 30.91429687 18.05859375 30.90234375 C21 31 21 31 22 32 C22 33.98 22 35.96 22 38 C14.74 38 7.48 38 0 38 C0 25.46 0 12.92 0 0 Z " fill="#E3DCDB" transform="translate(389,260)"/>
<path d="M0 0 C3.34657952 1.84403361 4.55537469 3.15309464 6.3125 6.5 C7 9 7 9 7 13 C4.36 13 1.72 13 -1 13 C-1.33 11.02 -1.66 9.04 -2 7 C-6.34184202 7.18464366 -6.34184202 7.18464366 -10 9 C-10.08700342 10.63472882 -10.10701063 12.27314055 -10.09765625 13.91015625 C-10.09443359 14.89951172 -10.09121094 15.88886719 -10.08789062 16.90820312 C-10.07951172 17.94912109 -10.07113281 18.99003906 -10.0625 20.0625 C-10.05798828 21.10728516 -10.05347656 22.15207031 -10.04882812 23.22851562 C-10.03699913 25.8190666 -10.02051689 28.40950559 -10 31 C-7.69 31 -5.38 31 -3 31 C-2.34 29.02 -1.68 27.04 -1 25 C1.64 25 4.28 25 7 25 C6.75904678 32.10812004 6.75904678 32.10812004 3.5 35.9375 C-0.33020481 38.65363081 -4.36845191 39.29050929 -9 39 C-13.22858897 37.51216314 -15.70568086 35.86411644 -18 32 C-19.42098885 27.73703344 -19.26461062 23.653983 -19.3125 19.1875 C-19.34150391 18.29740234 -19.37050781 17.40730469 -19.40039062 16.49023438 C-19.45519756 10.80296127 -18.89197786 7.45089587 -15 3 C-10.65316956 -1.20460286 -5.72225995 -0.76409999 0 0 Z " fill="#E5DDDD" transform="translate(377,260)"/>
<path d="M0 0 C18 0 18 0 23 4 C25.45173211 7.9004829 25.16633475 11.49916445 24.54296875 15.9140625 C23.56949729 19.6538737 21.35275845 21.19868448 18.16015625 23.08984375 C14.48393365 24.6387766 10.9492679 24.11615494 7 24 C7 28.29 7 32.58 7 37 C4.69 37 2.38 37 0 37 C0 24.79 0 12.58 0 0 Z M7 6 C7 9.63 7 13.26 7 17 C8.918125 17.0928125 8.918125 17.0928125 10.875 17.1875 C11.59429687 17.22230469 12.31359375 17.25710938 13.0546875 17.29296875 C13.69664062 17.19628906 14.33859375 17.09960938 15 17 C17.37727232 14.09561011 17.37727232 14.09561011 16.75 10.375 C16.5025 9.26125 16.255 8.1475 16 7 C13.04335481 5.5216774 10.25770263 5.93967217 7 6 Z " fill="#E9E2E2" transform="translate(272,261)"/>
<path d="M0 0 C5.1665625 -0.0309375 5.1665625 -0.0309375 10.4375 -0.0625 C11.52474365 -0.071604 12.6119873 -0.08070801 13.73217773 -0.09008789 C15.00750366 -0.09383423 15.00750366 -0.09383423 16.30859375 -0.09765625 C17.62041626 -0.10551147 17.62041626 -0.10551147 18.95874023 -0.11352539 C21 0 21 0 22 1 C22.125 3.5 22.125 3.5 22 6 C21 7 21 7 18.05859375 7.09765625 C16.26615234 7.08025391 16.26615234 7.08025391 14.4375 7.0625 C12.64119141 7.04896484 12.64119141 7.04896484 10.80859375 7.03515625 C9.88175781 7.02355469 8.95492187 7.01195312 8 7 C8 9.64 8 12.28 8 15 C11.63 15 15.26 15 19 15 C19 16.98 19 18.96 19 21 C15.04 21 11.08 21 7 21 C7 24.63 7 28.26 7 32 C11.62 32 16.24 32 21 32 C21 33.98 21 35.96 21 38 C14.07 38 7.14 38 0 38 C0 25.46 0 12.92 0 0 Z " fill="#E7E0DF" transform="translate(217,260)"/>
<path d="M0 0 C8.91 0 17.82 0 27 0 C27 2.31 27 4.62 27 7 C24.03 7 21.06 7 18 7 C18 17.23 18 27.46 18 38 C15.03 38 12.06 38 9 38 C9 27.77 9 17.54 9 7 C6.03 7 3.06 7 0 7 C0 4.69 0 2.38 0 0 Z " fill="#DED6D5" transform="translate(84,199)"/>
<path d="M0 0 C8.58 0 17.16 0 26 0 C26 2.31 26 4.62 26 7 C23.03 7 20.06 7 17 7 C17 17.23 17 27.46 17 38 C14.36 38 11.72 38 9 38 C9 27.77 9 17.54 9 7 C6.03 7 3.06 7 0 7 C0 4.69 0 2.38 0 0 Z " fill="#E6DFDE" transform="translate(241,260)"/>
<path d="M0 0 C2.31 0 4.62 0 7 0 C7 10.23 7 20.46 7 31 C11.62 31 16.24 31 21 31 C21 32.98 21 34.96 21 37 C14.07 37 7.14 37 0 37 C0 24.79 0 12.58 0 0 Z " fill="#ECE4E4" transform="translate(302,261)"/>
</svg>
